<svg width="178" height="43" viewBox="0 0 178 43" fill="none" xmlns="http://www.w3.org/2000/svg">
<path d="M124.125 12.45C125.975 12.45 127.592 12.8167 128.975 13.55C130.358 14.2833 131.425 15.3167 132.175 16.65C132.942 17.9667 133.325 19.4917 133.325 21.225C133.325 22.9417 132.942 24.4667 132.175 25.8C131.425 27.1333 130.35 28.1667 128.95 28.9C127.567 29.6333 125.958 30 124.125 30H117.55V12.45H124.125ZM123.85 26.3C125.467 26.3 126.725 25.8583 127.625 24.975C128.525 24.0917 128.975 22.8417 128.975 21.225C128.975 19.6083 128.525 18.35 127.625 17.45C126.725 16.55 125.467 16.1 123.85 16.1H121.825V26.3H123.85ZM134.864 23C134.864 21.5667 135.131 20.3083 135.664 19.225C136.214 18.1417 136.956 17.3083 137.889 16.725C138.822 16.1417 139.864 15.85 141.014 15.85C141.997 15.85 142.856 16.05 143.589 16.45C144.339 16.85 144.914 17.375 145.314 18.025V16.05H149.589V30H145.314V28.025C144.897 28.675 144.314 29.2 143.564 29.6C142.831 30 141.972 30.2 140.989 30.2C139.856 30.2 138.822 29.9083 137.889 29.325C136.956 28.725 136.214 27.8833 135.664 26.8C135.131 25.7 134.864 24.4333 134.864 23ZM145.314 23.025C145.314 21.9583 145.014 21.1167 144.414 20.5C143.831 19.8833 143.114 19.575 142.264 19.575C141.414 19.575 140.689 19.8833 140.089 20.5C139.506 21.1 139.214 21.9333 139.214 23C139.214 24.0667 139.506 24.9167 140.089 25.55C140.689 26.1667 141.414 26.475 142.264 26.475C143.114 26.475 143.831 26.1667 144.414 25.55C145.014 24.9333 145.314 24.0917 145.314 23.025ZM156.957 18.375C157.457 17.6083 158.082 17.0083 158.832 16.575C159.582 16.125 160.415 15.9 161.332 15.9V20.425H160.157C159.09 20.425 158.29 20.6583 157.757 21.125C157.224 21.575 156.957 22.375 156.957 23.525V30H152.682V16.05H156.957V18.375ZM171.9 30L167.65 24.15V30H163.375V11.5H167.65V21.725L171.875 16.05H177.15L171.35 23.05L177.2 30H171.9Z" fill="white" fill-opacity="0.4"/>
<g filter="url(#filter0_i_22_9)">
<rect width="100" height="43" rx="21.5" fill="#2748FD"/>
</g>
<circle cx="80" cy="22" r="20" fill="white"/>
<defs>
<filter id="filter0_i_22_9" x="0" y="0" width="104" height="47" filterUnits="userSpaceOnUse" color-interpolation-filters="sRGB">
<feFlood flood-opacity="0" result="BackgroundImageFix"/>
<feBlend mode="normal" in="SourceGraphic" in2="BackgroundImageFix" result="shape"/>
<feColorMatrix in="SourceAlpha" type="matrix" values="0 0 0 0 0 0 0 0 0 0 0 0 0 0 0 0 0 0 127 0" result="hardAlpha"/>
<feOffset dx="4" dy="4"/>
<feGaussianBlur stdDeviation="5"/>
<feComposite in2="hardAlpha" operator="arithmetic" k2="-1" k3="1"/>
<feColorMatrix type="matrix" values="0 0 0 0 0 0 0 0 0 0 0 0 0 0 0 0 0 0 0.25 0"/>
<feBlend mode="normal" in2="shape" result="effect1_innerShadow_22_9"/>
</filter>
</defs>
</svg>
