<svg width="30" height="30" viewBox="0 0 30 30" fill="none" xmlns="http://www.w3.org/2000/svg">
<path d="M24.2 5.904C23.3832 5.07772 22.3434 4.50742 21.2076 4.2629C20.0718 4.01838 18.8893 4.11024 17.8049 4.52724C16.7205 4.94423 15.7812 5.66828 15.1019 6.61079C14.4225 7.55329 14.0327 8.67338 13.98 9.834L20.264 16.118C21.4239 16.0653 22.5433 15.6759 23.4854 14.9973C24.4276 14.3188 25.1517 13.3804 25.5692 12.297C25.9867 11.2136 26.0795 10.032 25.8364 8.89666C25.5932 7.76132 25.0246 6.7214 24.2 5.904ZM9.34398 16.504L5.09998 20.754C4.72503 21.1291 4.5144 21.6377 4.5144 22.168C4.5144 22.6983 4.72503 23.2069 5.09998 23.582L6.51398 24.996C6.88903 25.3709 7.39765 25.5816 7.92798 25.5816C8.45831 25.5816 8.96692 25.3709 9.34198 24.996L13.584 20.754L17.828 16.51L13.586 12.268L9.34398 16.504ZM10.826 20.678L9.41198 19.264L13.586 15.096L15 16.51L10.826 20.678Z" fill="white" fill-opacity="0.4"/>
</svg>
